{"title":"Aitraaz 2004 - Full Songs 720P H.264 - truHD Encodes","uid":12245512,"size":437208210,"categoryP":"video","categoryS":"music_videos","magnet":"?xt=urn:btih:e4d0eeb8e0499a79ab80f2e6568e522d8b9a2d20&amp;dn=Aitraaz+2004+-+Full+Songs+720P+H.264+-+truHD+Encodes&amp;tr=udp%3A%2F%2Ftracker.openbittorrent.com%3A80&amp;tr=udp%3A%2F%2Fopen.demonii.com%3A1337&amp;tr=udp%3A%2F%2Ftracker.coppersurfer.tk%3A6969&amp;tr=udp%3A%2F%2Fexodus.desync.com%3A6969","seeders":1,"leechers":0,"uploader":"Aainul","files":12,"time":1439896884,"description":"Seeding From High Speed Seedbox\n\nAitraaz 2004 - Full Songs 720P H.264 - truHD Encodes\n\nource: Hon3yHD / Thanks Hon3y Encoders\n\nEncoded File Info:\n\nGeneral\nFormat : MPEG-4\nFormat profile : Base Media / Version 2\nCodec ID : mp42\nFile size : 19.3 MiB\nDuration : 1mn 36s\nOverall bit rate mode : Variable\nOverall bit rate : 1 672 Kbps\nEncoded date : UTC 2036-02-06 06:28:16\nTagged date : UTC 2036-02-06 06:28:16\nWriting application : HandBrake 0.10.2 2015060900\n\nVideo\nID : 1\nFormat : AVC\nFormat/Info : Advanced Video Codec\nFormat profile : &lt;a class=&quot;__cf_email__&quot; href=&quot;/cdn-cgi/l/email-protection&quot; data-cfemail=&quot;b0f8d9d7d8f0fc839e81&quot;&gt;[email&amp;#160;protected]&lt;/a&gt;&lt;script data-cfhash='f9e31' type=&quot;text/javascript&quot;&gt;\n/* &lt;![CDATA[ */!function(){try{var t=&quot;currentScript&quot;in document?document.currentScript:function(){for(var t=document.getElementsByTagName(&quot;script&quot;),e=t.length;e--;)if(t[e].getAttribute(&quot;data-cfhash&quot;))return t[e]}();if(t&amp;&amp;t.previousSibling){var e,r,n,i,c=t.previousSibling,a=c.getAttribute(&quot;data-cfemail&quot;);if(a){for(e=&quot;&quot;,r=parseInt(a.substr(0,2),16),n=2;a.length-n;n+=2)i=parseInt(a.substr(n,2),16)^r,e+=String.fromCharCode(i);e=document.createTextNode(e),c.parentNode.replaceChild(e,c)}t.parentNode.removeChild(t);}}catch(u){}}()/* ]]&gt; */&lt;/script&gt;\nFormat settings, CABAC : Yes\nFormat settings, ReFrames : 5 frames\nCodec ID : avc1\nCodec ID/Info : Advanced Video Coding\nDuration : 1mn 36s\nBit rate : 1 505 Kbps\nWidth : 1 234 pixels\nHeight : 468 pixels\nDisplay aspect ratio : 2.637\nFrame rate mode : Variable\nFrame rate : 24.000 fps\nMinimum frame rate : 23.810 fps\nMaximum frame rate : 24.390 fps\nColor space : YUV\nChroma subsampling : 4:2:0\nBit depth : 8 bits\nScan type : Progressive\nBits/(Pixel*Frame) : 0.109\nStream size : 17.3 MiB (90%)\n\nEncoded date : UTC 2036-02-06 06:28:16\nTagged date : UTC 2036-02-06 06:28:16\nColor primaries : BT.709\nTransfer characteristics : BT.709\nMatrix coefficients : BT.709\n\nAudio\nID : 2\nFormat : AAC\nFormat/Info : Advanced Audio Codec\nFormat profile : LC\nCodec ID : 40\nDuration : 1mn 36s\nBit rate mode : Variable\nBit rate : 158 Kbps\nChannel(s) : 2 channels\nChannel positions : Front: L R\nSampling rate : 44.1 KHz\nCompression mode : Lossy\nStream size : 1.82 MiB (9%)\nTitle : Stereo\nLanguage : Hindi\n\n\nFile Info May Be VARY with FILES. I Just Compressed Videos As Much As Possible Without Quality Lose\n\nScreenShots:\n &lt;a href=&quot;\nhttps://yuq.me/users/36/459/tbrW52vQdU.jpg&quot; rel=&quot;nofollow&quot; target=&quot;_NEW&quot;&gt;\nhttps://yuq.me/users/36/459/tbrW52vQdU.jpg&lt;/a&gt; &lt;a href=&quot;\nhttps://yuq.me/users/36/459/nTMfoeBl5z.jpg&quot; rel=&quot;nofollow&quot; target=&quot;_NEW&quot;&gt;\nhttps://yuq.me/users/36/459/nTMfoeBl5z.jpg&lt;/a&gt; &lt;a href=&quot;\nhttps://yuq.me/users/36/459/qBMkDhlYHE.jpg&quot; rel=&quot;nofollow&quot; target=&quot;_NEW&quot;&gt;\nhttps://yuq.me/users/36/459/qBMkDhlYHE.jpg&lt;/a&gt; &lt;a href=&quot;\nhttps://yuq.me/users/36/459/v2GrSgMqYp.jpg&quot; rel=&quot;nofollow&quot; target=&quot;_NEW&quot;&gt;\nhttps://yuq.me/users/36/459/v2GrSgMqYp.jpg&lt;/a&gt; &lt;a href=&quot;\nhttps://yuq.me/users/36/459/Q0poVFzaBh.jpg&quot; rel=&quot;nofollow&quot; target=&quot;_NEW&quot;&gt;\nhttps://yuq.me/users/36/459/Q0poVFzaBh.jpg&lt;/a&gt; &lt;a href=&quot;\nhttps://yuq.me/users/36/459/eqdXkHjQwU.jpg&quot; rel=&quot;nofollow&quot; target=&quot;_NEW&quot;&gt;\nhttps://yuq.me/users/36/459/eqdXkHjQwU.jpg&lt;/a&gt;\n\n\nLike Us On FB And Request Accepted @\n\nKickAssTorrents: https://kat.cr/user/Aainul/\nGloTorrents: https://glodls.to/user/Aainul\nThePirateBay: https://thepiratebay.vg/user/Aainul/\n1337x Torrents: http://1337.to/user/Aainul/\n\n\nNote: All Videos Uploaded By Me Are For Review Purpose. If You Like IT, Google IT And Buy IT - Thanks\n\n\nKing Regards\ntruHD HEVC Team\n\nShare Among Friends And Relatives","torrent":{"xt":"urn:btih:e4d0eeb8e0499a79ab80f2e6568e522d8b9a2d20","amp;dn":"Aitraaz+2004+-+Full+Songs+720P+H.264+-+truHD+Encodes","amp;tr":["udp%3A%2F%2Ftracker.openbittorrent.com%3A80","udp%3A%2F%2Fopen.demonii.com%3A1337","udp%3A%2F%2Ftracker.coppersurfer.tk%3A6969","udp%3A%2F%2Fexodus.desync.com%3A6969"],"infoHash":"e4d0eeb8e0499a79ab80f2e6568e522d8b9a2d20","infoHashBuffer":{"type":"Buffer","data":[228,208,238,184,224,73,154,121,171,128,242,230,86,142,82,45,139,154,45,32]},"announce":[],"urlList":[]}}